<mxfile host="Electron" agent="Mozilla/5.0 (X11; Linux x86_64) AppleWebKit/537.36 (KHTML, like Gecko) draw.io/24.7.8 Chrome/128.0.6613.36 Electron/32.0.1 Safari/537.36" version="24.7.8">
  <diagram name="Page-1" id="G9_fZqqb6Zyh2_aJ_G_H">
    <mxGraphModel dx="1430" dy="1957" grid="1" gridSize="10" guides="1" tooltips="1" connect="1" arrows="1" fold="1" page="1" pageScale="1" pageWidth="850" pageHeight="1100" math="0" shadow="0">
      <root>
        <mxCell id="0" />
        <mxCell id="1" parent="0" />
        <mxCell id="KA9cXF0Qn6kop6m9bpcs-1" value="" style="rounded=0;whiteSpace=wrap;html=1;fillColor=none;" parent="1" vertex="1">
          <mxGeometry x="80" y="-692" width="580.15" height="65" as="geometry" />
        </mxCell>
        <mxCell id="pUGdfvrfFvc4LRBG9S2P-44" value="" style="rounded=1;whiteSpace=wrap;html=1;fillColor=none;dashed=1;" parent="1" vertex="1">
          <mxGeometry x="420" y="-850" width="180" height="90" as="geometry" />
        </mxCell>
        <mxCell id="27a8s7GIZXVaInFOkT8d-3" value="" style="rounded=1;whiteSpace=wrap;html=1;fillColor=none;" parent="1" vertex="1">
          <mxGeometry x="80" y="-1000" width="200" height="250" as="geometry" />
        </mxCell>
        <mxCell id="27a8s7GIZXVaInFOkT8d-1" value="&lt;font face=&quot;newcomputermodern&quot;&gt;POD A&lt;br&gt;&lt;br&gt;&lt;/font&gt;" style="rounded=1;whiteSpace=wrap;html=1;fillColor=none;" parent="1" vertex="1">
          <mxGeometry x="90" y="-970" width="70" height="70" as="geometry" />
        </mxCell>
        <mxCell id="pUGdfvrfFvc4LRBG9S2P-42" value="" style="rounded=1;whiteSpace=wrap;html=1;fillColor=none;dashed=1;glass=0;" parent="1" vertex="1">
          <mxGeometry x="90" y="-850" width="180" height="90" as="geometry" />
        </mxCell>
        <mxCell id="pUGdfvrfFvc4LRBG9S2P-18" style="edgeStyle=orthogonalEdgeStyle;rounded=0;orthogonalLoop=1;jettySize=auto;html=1;exitX=0.5;exitY=1;exitDx=0;exitDy=0;endArrow=none;endFill=0;strokeColor=#009900;strokeWidth=1;" parent="1" source="27a8s7GIZXVaInFOkT8d-3" edge="1">
          <mxGeometry relative="1" as="geometry">
            <mxPoint x="179.95238095238096" y="-720" as="targetPoint" />
            <Array as="points">
              <mxPoint x="180" y="-740" />
              <mxPoint x="180" y="-740" />
            </Array>
          </mxGeometry>
        </mxCell>
        <mxCell id="pUGdfvrfFvc4LRBG9S2P-5" style="edgeStyle=orthogonalEdgeStyle;rounded=0;orthogonalLoop=1;jettySize=auto;html=1;exitX=0.5;exitY=1;exitDx=0;exitDy=0;entryX=0.5;entryY=0;entryDx=0;entryDy=0;endArrow=none;endFill=0;strokeColor=#0000FF;" parent="1" source="27a8s7GIZXVaInFOkT8d-1" target="pUGdfvrfFvc4LRBG9S2P-4" edge="1">
          <mxGeometry relative="1" as="geometry" />
        </mxCell>
        <mxCell id="27a8s7GIZXVaInFOkT8d-4" value="&lt;font face=&quot;newcomputermodern&quot;&gt;Node A&lt;/font&gt;" style="text;html=1;align=center;verticalAlign=middle;whiteSpace=wrap;rounded=0;" parent="1" vertex="1">
          <mxGeometry x="85" y="-1000" width="60" height="30" as="geometry" />
        </mxCell>
        <mxCell id="27a8s7GIZXVaInFOkT8d-5" value="&lt;div&gt;veth0&lt;/div&gt;" style="rounded=0;whiteSpace=wrap;html=1;fontFamily=newcomputermodern;" parent="1" vertex="1">
          <mxGeometry x="101.88" y="-920" width="50" height="20" as="geometry" />
        </mxCell>
        <mxCell id="27a8s7GIZXVaInFOkT8d-6" value="eth" style="rounded=0;whiteSpace=wrap;html=1;fontFamily=newcomputermodern;" parent="1" vertex="1">
          <mxGeometry x="155" y="-770" width="50" height="20" as="geometry" />
        </mxCell>
        <mxCell id="27a8s7GIZXVaInFOkT8d-28" value="" style="endArrow=none;html=1;rounded=0;" parent="1" edge="1">
          <mxGeometry width="50" height="50" relative="1" as="geometry">
            <mxPoint x="110" y="-720" as="sourcePoint" />
            <mxPoint x="600" y="-720" as="targetPoint" />
          </mxGeometry>
        </mxCell>
        <mxCell id="27a8s7GIZXVaInFOkT8d-29" value="" style="endArrow=none;dashed=1;html=1;dashPattern=1 3;strokeWidth=1;rounded=0;" parent="1" edge="1">
          <mxGeometry width="50" height="50" relative="1" as="geometry">
            <mxPoint x="600" y="-720" as="sourcePoint" />
            <mxPoint x="640" y="-720" as="targetPoint" />
          </mxGeometry>
        </mxCell>
        <mxCell id="27a8s7GIZXVaInFOkT8d-30" value="&lt;font face=&quot;newcomputermodern&quot;&gt;Local network&lt;/font&gt;" style="text;html=1;align=center;verticalAlign=middle;whiteSpace=wrap;rounded=0;" parent="1" vertex="1">
          <mxGeometry x="50" y="-737" width="61" height="30" as="geometry" />
        </mxCell>
        <mxCell id="27a8s7GIZXVaInFOkT8d-32" value="" style="endArrow=none;dashed=1;html=1;dashPattern=1 3;strokeWidth=1;rounded=0;" parent="1" edge="1">
          <mxGeometry width="50" height="50" relative="1" as="geometry">
            <mxPoint x="70" y="-720" as="sourcePoint" />
            <mxPoint x="110" y="-720" as="targetPoint" />
          </mxGeometry>
        </mxCell>
        <mxCell id="27a8s7GIZXVaInFOkT8d-63" value="" style="rounded=1;whiteSpace=wrap;html=1;fillColor=none;" parent="1" vertex="1">
          <mxGeometry x="300" y="-970" width="90" height="95" as="geometry" />
        </mxCell>
        <mxCell id="27a8s7GIZXVaInFOkT8d-64" value="&lt;font face=&quot;newcomputermodern&quot;&gt;Control plane&lt;/font&gt;" style="text;html=1;align=center;verticalAlign=middle;whiteSpace=wrap;rounded=0;" parent="1" vertex="1">
          <mxGeometry x="300" y="-970" width="85" height="30" as="geometry" />
        </mxCell>
        <mxCell id="pUGdfvrfFvc4LRBG9S2P-39" style="edgeStyle=orthogonalEdgeStyle;rounded=0;orthogonalLoop=1;jettySize=auto;html=1;exitX=1;exitY=0.5;exitDx=0;exitDy=0;exitPerimeter=0;entryX=0;entryY=0.5;entryDx=0;entryDy=0;endArrow=classicThin;endFill=0;startArrow=classicThin;startFill=0;" parent="1" source="27a8s7GIZXVaInFOkT8d-65" target="pUGdfvrfFvc4LRBG9S2P-36" edge="1">
          <mxGeometry relative="1" as="geometry" />
        </mxCell>
        <mxCell id="27a8s7GIZXVaInFOkT8d-65" value="&lt;font face=&quot;newcomputermodern&quot;&gt;etcd&lt;/font&gt;" style="shape=cylinder3;whiteSpace=wrap;html=1;boundedLbl=1;backgroundOutline=1;size=2.388888888888914;" parent="1" vertex="1">
          <mxGeometry x="315" y="-931" width="60" height="40" as="geometry" />
        </mxCell>
        <mxCell id="27a8s7GIZXVaInFOkT8d-95" value="" style="endArrow=none;html=1;rounded=0;entryX=0.5;entryY=1;entryDx=0;entryDy=0;" parent="1" target="27a8s7GIZXVaInFOkT8d-63" edge="1">
          <mxGeometry width="50" height="50" relative="1" as="geometry">
            <mxPoint x="345" y="-720" as="sourcePoint" />
            <mxPoint x="410" y="-880" as="targetPoint" />
          </mxGeometry>
        </mxCell>
        <mxCell id="pUGdfvrfFvc4LRBG9S2P-3" value="" style="rounded=0;whiteSpace=wrap;html=1;fillColor=none;" parent="1" vertex="1">
          <mxGeometry x="105" y="-840" width="145" height="40" as="geometry" />
        </mxCell>
        <mxCell id="pUGdfvrfFvc4LRBG9S2P-4" value="&lt;div&gt;veth-xx&lt;/div&gt;" style="rounded=0;whiteSpace=wrap;html=1;fontFamily=newcomputermodern;" parent="1" vertex="1">
          <mxGeometry x="111" y="-840" width="50" height="20" as="geometry" />
        </mxCell>
        <mxCell id="pUGdfvrfFvc4LRBG9S2P-14" style="edgeStyle=elbowEdgeStyle;rounded=0;orthogonalLoop=1;jettySize=auto;html=1;entryX=0.5;entryY=0;entryDx=0;entryDy=0;endArrow=none;endFill=0;elbow=horizontal;strokeColor=#009900;strokeWidth=1;" parent="1" source="pUGdfvrfFvc4LRBG9S2P-9" target="27a8s7GIZXVaInFOkT8d-6" edge="1">
          <mxGeometry relative="1" as="geometry" />
        </mxCell>
        <mxCell id="pUGdfvrfFvc4LRBG9S2P-9" value="&lt;div&gt;flannel.1&lt;/div&gt;" style="rounded=0;whiteSpace=wrap;html=1;fontFamily=newcomputermodern;" parent="1" vertex="1">
          <mxGeometry x="150.15" y="-800" width="59.7" height="20" as="geometry" />
        </mxCell>
        <mxCell id="pUGdfvrfFvc4LRBG9S2P-10" value="&lt;font face=&quot;newcomputermodern&quot;&gt;cni-bridge&lt;/font&gt;" style="text;html=1;align=center;verticalAlign=middle;whiteSpace=wrap;rounded=0;" parent="1" vertex="1">
          <mxGeometry x="111" y="-825" width="61" height="30" as="geometry" />
        </mxCell>
        <mxCell id="pUGdfvrfFvc4LRBG9S2P-11" value="" style="rounded=1;whiteSpace=wrap;html=1;fillColor=none;" parent="1" vertex="1">
          <mxGeometry x="170" y="-982" width="90" height="116" as="geometry" />
        </mxCell>
        <mxCell id="pUGdfvrfFvc4LRBG9S2P-12" value="&lt;font face=&quot;newcomputermodern&quot;&gt;kube-flannel pod&lt;/font&gt;" style="text;html=1;align=center;verticalAlign=middle;whiteSpace=wrap;rounded=0;" parent="1" vertex="1">
          <mxGeometry x="165" y="-986" width="100" height="30" as="geometry" />
        </mxCell>
        <mxCell id="pUGdfvrfFvc4LRBG9S2P-15" style="rounded=0;orthogonalLoop=1;jettySize=auto;html=1;exitX=0.5;exitY=1;exitDx=0;exitDy=0;entryX=0.5;entryY=0;entryDx=0;entryDy=0;startArrow=classicThin;startFill=0;endArrow=classicThin;endFill=0;" parent="1" source="pUGdfvrfFvc4LRBG9S2P-13" target="pUGdfvrfFvc4LRBG9S2P-3" edge="1">
          <mxGeometry relative="1" as="geometry" />
        </mxCell>
        <mxCell id="pUGdfvrfFvc4LRBG9S2P-17" style="rounded=0;orthogonalLoop=1;jettySize=auto;html=1;exitX=0.75;exitY=1;exitDx=0;exitDy=0;entryX=0.5;entryY=0;entryDx=0;entryDy=0;endArrow=classicThin;endFill=0;strokeColor=#000000;" parent="1" source="pUGdfvrfFvc4LRBG9S2P-13" target="pUGdfvrfFvc4LRBG9S2P-9" edge="1">
          <mxGeometry relative="1" as="geometry" />
        </mxCell>
        <mxCell id="pUGdfvrfFvc4LRBG9S2P-13" value="&lt;font color=&quot;#000000&quot; face=&quot;newcomputermodern&quot;&gt;flanneld&lt;/font&gt;" style="rounded=1;whiteSpace=wrap;html=1;fillColor=#C9C9C9;fontColor=#333333;strokeColor=#000000;" parent="1" vertex="1">
          <mxGeometry x="180" y="-931" width="70" height="40" as="geometry" />
        </mxCell>
        <mxCell id="pUGdfvrfFvc4LRBG9S2P-16" style="edgeStyle=orthogonalEdgeStyle;rounded=0;orthogonalLoop=1;jettySize=auto;html=1;exitX=1;exitY=0.5;exitDx=0;exitDy=0;entryX=0;entryY=0.5;entryDx=0;entryDy=0;entryPerimeter=0;startArrow=classicThin;startFill=0;endArrow=classicThin;endFill=0;" parent="1" source="pUGdfvrfFvc4LRBG9S2P-13" target="27a8s7GIZXVaInFOkT8d-65" edge="1">
          <mxGeometry relative="1" as="geometry" />
        </mxCell>
        <mxCell id="pUGdfvrfFvc4LRBG9S2P-20" style="edgeStyle=orthogonalEdgeStyle;rounded=0;orthogonalLoop=1;jettySize=auto;html=1;exitX=0.5;exitY=1;exitDx=0;exitDy=0;entryX=0.5;entryY=0;entryDx=0;entryDy=0;endArrow=none;endFill=0;strokeColor=#0000FF;" parent="1" source="pUGdfvrfFvc4LRBG9S2P-21" target="pUGdfvrfFvc4LRBG9S2P-28" edge="1">
          <mxGeometry relative="1" as="geometry" />
        </mxCell>
        <mxCell id="pUGdfvrfFvc4LRBG9S2P-21" value="&lt;font face=&quot;newcomputermodern&quot;&gt;POD B&lt;br&gt;&lt;br&gt;&lt;/font&gt;" style="rounded=1;whiteSpace=wrap;html=1;fillColor=none;" parent="1" vertex="1">
          <mxGeometry x="525" y="-966" width="70" height="70" as="geometry" />
        </mxCell>
        <mxCell id="pUGdfvrfFvc4LRBG9S2P-22" value="&lt;font face=&quot;newcomputermodern&quot;&gt;Node B&lt;/font&gt;" style="text;html=1;align=center;verticalAlign=middle;whiteSpace=wrap;rounded=0;" parent="1" vertex="1">
          <mxGeometry x="535" y="-1000" width="60" height="30" as="geometry" />
        </mxCell>
        <mxCell id="pUGdfvrfFvc4LRBG9S2P-23" value="&lt;div&gt;veth0&lt;/div&gt;" style="rounded=0;whiteSpace=wrap;html=1;fontFamily=newcomputermodern;" parent="1" vertex="1">
          <mxGeometry x="535" y="-916" width="50" height="20" as="geometry" />
        </mxCell>
        <mxCell id="pUGdfvrfFvc4LRBG9S2P-38" style="edgeStyle=orthogonalEdgeStyle;rounded=0;orthogonalLoop=1;jettySize=auto;html=1;exitX=0.5;exitY=1;exitDx=0;exitDy=0;endArrow=none;endFill=0;strokeColor=#009900;strokeWidth=1;" parent="1" source="pUGdfvrfFvc4LRBG9S2P-24" edge="1">
          <mxGeometry relative="1" as="geometry">
            <mxPoint x="509.8571428571429" y="-720" as="targetPoint" />
          </mxGeometry>
        </mxCell>
        <mxCell id="pUGdfvrfFvc4LRBG9S2P-27" value="" style="rounded=0;whiteSpace=wrap;html=1;fillColor=none;" parent="1" vertex="1">
          <mxGeometry x="439.5" y="-840" width="145" height="40" as="geometry" />
        </mxCell>
        <mxCell id="pUGdfvrfFvc4LRBG9S2P-28" value="&lt;div&gt;veth-xx&lt;/div&gt;" style="rounded=0;whiteSpace=wrap;html=1;fontFamily=newcomputermodern;" parent="1" vertex="1">
          <mxGeometry x="527" y="-840" width="50" height="20" as="geometry" />
        </mxCell>
        <mxCell id="pUGdfvrfFvc4LRBG9S2P-29" style="edgeStyle=elbowEdgeStyle;rounded=0;orthogonalLoop=1;jettySize=auto;html=1;entryX=0.5;entryY=0;entryDx=0;entryDy=0;endArrow=none;endFill=0;elbow=vertical;strokeColor=#009900;" parent="1" source="pUGdfvrfFvc4LRBG9S2P-30" target="pUGdfvrfFvc4LRBG9S2P-24" edge="1">
          <mxGeometry relative="1" as="geometry" />
        </mxCell>
        <mxCell id="pUGdfvrfFvc4LRBG9S2P-30" value="&lt;div&gt;flannel.1&lt;/div&gt;" style="rounded=0;whiteSpace=wrap;html=1;fontFamily=newcomputermodern;" parent="1" vertex="1">
          <mxGeometry x="480.15" y="-800" width="59.7" height="20" as="geometry" />
        </mxCell>
        <mxCell id="pUGdfvrfFvc4LRBG9S2P-31" value="&lt;font face=&quot;newcomputermodern&quot;&gt;cni-bridge&lt;/font&gt;" style="text;html=1;align=center;verticalAlign=middle;whiteSpace=wrap;rounded=0;" parent="1" vertex="1">
          <mxGeometry x="439" y="-825" width="61" height="30" as="geometry" />
        </mxCell>
        <mxCell id="pUGdfvrfFvc4LRBG9S2P-32" value="" style="rounded=1;whiteSpace=wrap;html=1;fillColor=none;" parent="1" vertex="1">
          <mxGeometry x="420" y="-982" width="90" height="116" as="geometry" />
        </mxCell>
        <mxCell id="pUGdfvrfFvc4LRBG9S2P-33" value="&lt;font face=&quot;newcomputermodern&quot;&gt;kube-flannel pod&lt;/font&gt;" style="text;html=1;align=center;verticalAlign=middle;whiteSpace=wrap;rounded=0;" parent="1" vertex="1">
          <mxGeometry x="415" y="-986" width="100" height="30" as="geometry" />
        </mxCell>
        <mxCell id="pUGdfvrfFvc4LRBG9S2P-40" style="rounded=0;orthogonalLoop=1;jettySize=auto;html=1;exitX=0.5;exitY=1;exitDx=0;exitDy=0;entryX=0.5;entryY=0;entryDx=0;entryDy=0;startArrow=classicThin;startFill=0;endArrow=classicThin;endFill=0;strokeColor=#000000;" parent="1" source="pUGdfvrfFvc4LRBG9S2P-36" target="pUGdfvrfFvc4LRBG9S2P-27" edge="1">
          <mxGeometry relative="1" as="geometry" />
        </mxCell>
        <mxCell id="pUGdfvrfFvc4LRBG9S2P-41" style="rounded=0;orthogonalLoop=1;jettySize=auto;html=1;exitX=0.25;exitY=1;exitDx=0;exitDy=0;entryX=0.5;entryY=0;entryDx=0;entryDy=0;endArrow=classicThin;endFill=0;" parent="1" source="pUGdfvrfFvc4LRBG9S2P-36" target="pUGdfvrfFvc4LRBG9S2P-30" edge="1">
          <mxGeometry relative="1" as="geometry" />
        </mxCell>
        <mxCell id="pUGdfvrfFvc4LRBG9S2P-36" value="&lt;font color=&quot;#000000&quot; face=&quot;newcomputermodern&quot;&gt;flanneld&lt;/font&gt;" style="rounded=1;whiteSpace=wrap;html=1;fillColor=#C9C9C9;fontColor=#333333;strokeColor=#000000;" parent="1" vertex="1">
          <mxGeometry x="430" y="-931" width="70" height="40" as="geometry" />
        </mxCell>
        <mxCell id="pUGdfvrfFvc4LRBG9S2P-45" value="&lt;font face=&quot;newcomputermodern&quot;&gt;host&lt;/font&gt;&lt;div&gt;&lt;font face=&quot;In3PIRM6Ry9xPag5o0V2&quot;&gt;kernel&lt;/font&gt;&lt;/div&gt;" style="text;html=1;align=center;verticalAlign=middle;whiteSpace=wrap;rounded=0;" parent="1" vertex="1">
          <mxGeometry x="79" y="-792" width="60" height="30" as="geometry" />
        </mxCell>
        <mxCell id="pUGdfvrfFvc4LRBG9S2P-46" value="&lt;font face=&quot;newcomputermodern&quot;&gt;host&lt;/font&gt;&lt;div&gt;&lt;font face=&quot;In3PIRM6Ry9xPag5o0V2&quot;&gt;kernel&lt;/font&gt;&lt;/div&gt;" style="text;html=1;align=center;verticalAlign=middle;whiteSpace=wrap;rounded=0;" parent="1" vertex="1">
          <mxGeometry x="412" y="-790" width="60" height="30" as="geometry" />
        </mxCell>
        <mxCell id="pUGdfvrfFvc4LRBG9S2P-24" value="eth" style="rounded=0;whiteSpace=wrap;html=1;fontFamily=newcomputermodern;" parent="1" vertex="1">
          <mxGeometry x="485" y="-770" width="50" height="20" as="geometry" />
        </mxCell>
        <mxCell id="pUGdfvrfFvc4LRBG9S2P-47" value="" style="endArrow=none;html=1;rounded=0;strokeColor=#009900;strokeWidth=1;" parent="1" edge="1">
          <mxGeometry width="50" height="50" relative="1" as="geometry">
            <mxPoint x="180" y="-720.23" as="sourcePoint" />
            <mxPoint x="510" y="-720.23" as="targetPoint" />
          </mxGeometry>
        </mxCell>
        <mxCell id="pUGdfvrfFvc4LRBG9S2P-48" value="&lt;font face=&quot;newcomputermodern&quot;&gt;Outer Ethernet Header&lt;/font&gt;" style="rounded=0;whiteSpace=wrap;html=1;strokeColor=#009900;fillColor=#D5E8D4;" parent="1" vertex="1">
          <mxGeometry x="90" y="-677" width="90" height="35" as="geometry" />
        </mxCell>
        <mxCell id="pUGdfvrfFvc4LRBG9S2P-49" value="&lt;font face=&quot;newcomputermodern&quot;&gt;Outer IP Header&lt;/font&gt;" style="rounded=0;whiteSpace=wrap;html=1;strokeColor=#009900;fillColor=#D5E8D4;" parent="1" vertex="1">
          <mxGeometry x="183" y="-677" width="90" height="35" as="geometry" />
        </mxCell>
        <mxCell id="pUGdfvrfFvc4LRBG9S2P-50" value="&lt;font face=&quot;newcomputermodern&quot;&gt;VXLAN &lt;br&gt;Header&lt;/font&gt;" style="rounded=0;whiteSpace=wrap;html=1;strokeColor=#808080;fillColor=#C9C9C9;" parent="1" vertex="1">
          <mxGeometry x="276" y="-677" width="90" height="35" as="geometry" />
        </mxCell>
        <mxCell id="pUGdfvrfFvc4LRBG9S2P-51" value="&lt;font face=&quot;newcomputermodern&quot;&gt;Inner Ethernet&lt;br&gt;Header&lt;/font&gt;" style="rounded=0;whiteSpace=wrap;html=1;strokeColor=#0000FF;fillColor=#CCE5FF;" parent="1" vertex="1">
          <mxGeometry x="369" y="-677" width="90" height="35" as="geometry" />
        </mxCell>
        <mxCell id="pUGdfvrfFvc4LRBG9S2P-52" value="&lt;font face=&quot;newcomputermodern&quot;&gt;Inner IP&lt;br&gt;Header&lt;/font&gt;" style="rounded=0;whiteSpace=wrap;html=1;strokeColor=#0000FF;fillColor=#CCE5FF;" parent="1" vertex="1">
          <mxGeometry x="462" y="-677" width="90" height="35" as="geometry" />
        </mxCell>
        <mxCell id="pUGdfvrfFvc4LRBG9S2P-53" value="&lt;font face=&quot;newcomputermodern&quot;&gt;...&lt;br&gt;Packet content&lt;br&gt;...&lt;/font&gt;" style="rounded=0;whiteSpace=wrap;html=1;" parent="1" vertex="1">
          <mxGeometry x="556" y="-684" width="90" height="50" as="geometry" />
        </mxCell>
        <mxCell id="IC3wncPXZirIfL_dl7rJ-3" value="" style="rounded=1;whiteSpace=wrap;html=1;fillColor=none;" parent="1" vertex="1">
          <mxGeometry x="410" y="-1000" width="200" height="250" as="geometry" />
        </mxCell>
      </root>
    </mxGraphModel>
  </diagram>
</mxfile>
